<?xml version="1.0" standalone="no"?><!DOCTYPE svg PUBLIC "-//W3C//DTD SVG 1.1//EN" "http://www.w3.org/Graphics/SVG/1.1/DTD/svg11.dtd"><svg xmlns="http://www.w3.org/2000/svg" viewBox="0 0 650 400" version="1.1"><clipPath id="box"><rect x="0" y="0" width="650" height="400" style="fill:none;stroke:none;" /></clipPath><g clip-path="url(#box)"><rect x="0.00" y="0.00" width="650.00" height="400.00" style="fill:#FFFFFF;stroke:none;" /><path d="M0.00 396.00 L650.00 396.00 M0.00 319.00 L650.00 319.00 M0.00 242.00 L650.00 242.00 M0.00 165.00 L650.00 165.00 M0.00 88.00 L650.00 88.00 M0.00 11.00 L650.00 11.00 M1.00 0.00 L1.00 400.00 M66.00 0.00 L66.00 400.00 M131.00 0.00 L131.00 400.00 M195.00 0.00 L195.00 400.00 M260.00 0.00 L260.00 400.00 M325.00 0.00 L325.00 400.00 M390.00 0.00 L390.00 400.00 M455.00 0.00 L455.00 400.00 M520.00 0.00 L520.00 400.00 M585.00 0.00 L585.00 400.00 M650.00 0.00 L650.00 400.00 " style="fill:none;stroke:#D0D0D0;stroke-width:1;" /><path d="M1.30 0.00 L1.30 400.00 " style="fill:none;stroke:#3D3D3D;stroke-width:1;" /><path d="M-5.20 473.08 L7.80 473.08 M-5.20 396.15 L7.80 396.15 M-5.20 319.23 L7.80 319.23 M-5.20 242.31 L7.80 242.31 M-5.20 165.38 L7.80 165.38 M-5.20 88.46 L7.80 88.46 M-5.20 11.54 L7.80 11.54 " style="fill:none;stroke:#3D3D3D;stroke-width:1;" /><path d="M0.00 396.15 L650.00 396.15 " style="fill:none;stroke:#3D3D3D;stroke-width:1;" /><path d="M-63.57 389.65 L-63.57 402.65 M1.30 389.65 L1.30 402.65 M66.17 389.65 L66.17 402.65 M131.04 389.65 L131.04 402.65 M195.91 389.65 L195.91 402.65 M260.78 389.65 L260.78 402.65 M325.65 389.65 L325.65 402.65 M390.52 389.65 L390.52 402.65 M455.39 389.65 L455.39 402.65 M520.26 389.65 L520.26 402.65 M585.13 389.65 L585.13 402.65 M650.00 389.65 L650.00 402.65 " style="fill:none;stroke:#3D3D3D;stroke-width:1;" /><text x="9.422405189620758" y="321.7307692307692" text-anchor="start" style="font:10px Droid Sans,Trebuchet MS,Arial,Helvetica,sans-serif;stroke:none;fill:#5C5A5A">0.2</text><text x="9.422405189620758" y="244.8076923076923" text-anchor="start" style="font:10px Droid Sans,Trebuchet MS,Arial,Helvetica,sans-serif;stroke:none;fill:#5C5A5A">0.4</text><text x="9.422405189620758" y="167.88461538461536" text-anchor="start" style="font:10px Droid Sans,Trebuchet MS,Arial,Helvetica,sans-serif;stroke:none;fill:#5C5A5A">0.6</text><text x="9.422405189620758" y="90.96153846153845" text-anchor="start" style="font:10px Droid Sans,Trebuchet MS,Arial,Helvetica,sans-serif;stroke:none;fill:#5C5A5A">0.8</text><text x="9.422405189620758" y="14.038461538461549" text-anchor="start" style="font:10px Droid Sans,Trebuchet MS,Arial,Helvetica,sans-serif;stroke:none;fill:#5C5A5A">1</text><text x="66.16766467065867" y="390.2788461538462" text-anchor="middle" style="font:10px Droid Sans,Trebuchet MS,Arial,Helvetica,sans-serif;stroke:none;fill:#5C5A5A">5</text><text x="131.03792415169661" y="390.2788461538462" text-anchor="middle" style="font:10px Droid Sans,Trebuchet MS,Arial,Helvetica,sans-serif;stroke:none;fill:#5C5A5A">10</text><text x="195.9081836327345" y="390.2788461538462" text-anchor="middle" style="font:10px Droid Sans,Trebuchet MS,Arial,Helvetica,sans-serif;stroke:none;fill:#5C5A5A">15</text><text x="260.7784431137725" y="390.2788461538462" text-anchor="middle" style="font:10px Droid Sans,Trebuchet MS,Arial,Helvetica,sans-serif;stroke:none;fill:#5C5A5A">20</text><text x="325.6487025948104" y="390.2788461538462" text-anchor="middle" style="font:10px Droid Sans,Trebuchet MS,Arial,Helvetica,sans-serif;stroke:none;fill:#5C5A5A">25</text><text x="390.5189620758483" y="390.2788461538462" text-anchor="middle" style="font:10px Droid Sans,Trebuchet MS,Arial,Helvetica,sans-serif;stroke:none;fill:#5C5A5A">30</text><text x="455.3892215568862" y="390.2788461538462" text-anchor="middle" style="font:10px Droid Sans,Trebuchet MS,Arial,Helvetica,sans-serif;stroke:none;fill:#5C5A5A">35</text><text x="520.2594810379242" y="390.2788461538462" text-anchor="middle" style="font:10px Droid Sans,Trebuchet MS,Arial,Helvetica,sans-serif;stroke:none;fill:#5C5A5A">40</text><text x="585.1297405189621" y="390.2788461538462" text-anchor="middle" style="font:10px Droid Sans,Trebuchet MS,Arial,Helvetica,sans-serif;stroke:none;fill:#5C5A5A">45</text><path d="M0.50 400.00 L0.50 400.00 L0.71 399.00 L0.92 398.00 L1.12 397.00 L1.33 396.00 L1.54 395.01 L1.74 394.01 L1.95 393.01 L2.16 392.01 L2.37 391.02 L2.58 390.02 L2.79 389.02 L3.00 388.03 L3.21 387.03 L3.43 386.03 L3.64 385.03 L3.85 384.04 L4.07 383.04 L4.28 382.04 L4.50 381.04 L4.71 380.05 L4.93 379.05 L5.15 378.05 L5.36 377.05 L5.58 376.06 L5.80 375.06 L6.02 374.06 L6.24 373.07 L6.46 372.07 L6.68 371.07 L6.90 370.07 L7.13 369.08 L7.35 368.08 L7.57 367.08 L7.80 366.09 L8.02 365.09 L8.25 364.09 L8.47 363.09 L8.70 362.10 L8.93 361.10 L9.15 360.10 L9.38 359.11 L9.61 358.11 L9.84 357.11 L10.07 356.11 L10.30 355.12 L10.54 354.12 L10.77 353.12 L11.00 352.13 L11.24 351.13 L11.47 350.13 L11.71 349.13 L11.94 348.14 L12.18 347.14 L12.42 346.14 L12.66 345.15 L12.89 344.15 L13.13 343.15 L13.37 342.15 L13.62 341.16 L13.86 340.16 L14.10 339.16 L14.34 338.17 L14.59 337.17 L14.83 336.17 L15.08 335.18 L15.32 334.18 L15.57 333.18 L15.82 332.19 L16.07 331.19 L16.32 330.19 L16.57 329.19 L16.82 328.20 L17.07 327.20 L17.32 326.20 L17.58 325.21 L17.83 324.21 L18.08 323.21 L18.34 322.22 L18.60 321.22 L18.85 320.22 L19.11 319.23 L19.37 318.23 L19.63 317.23 L19.89 316.24 L20.15 315.24 L20.42 314.24 L20.68 313.25 L20.94 312.25 L21.21 311.25 L21.47 310.26 L21.74 309.26 L22.01 308.26 L22.28 307.27 L22.55 306.27 L22.82 305.27 L23.09 304.28 L23.36 303.28 L23.63 302.28 L23.91 301.29 L24.18 300.29 L24.46 299.29 L24.74 298.30 L25.01 297.30 L25.29 296.30 L25.57 295.31 L25.85 294.31 L26.14 293.31 L26.42 292.32 L26.70 291.32 L26.99 290.32 L27.27 289.33 L27.56 288.33 L27.85 287.34 L28.14 286.34 L28.43 285.34 L28.72 284.35 L29.01 283.35 L29.30 282.35 L29.60 281.36 L29.89 280.36 L30.19 279.36 L30.49 278.37 L30.78 277.37 L31.08 276.38 L31.39 275.38 L31.69 274.38 L31.99 273.39 L32.29 272.39 L32.60 271.39 L32.91 270.40 L33.21 269.40 L33.52 268.41 L33.83 267.41 L34.15 266.41 L34.46 265.42 L34.77 264.42 L35.09 263.43 L35.40 262.43 L35.72 261.43 L36.04 260.44 L36.36 259.44 L36.68 258.45 L37.00 257.45 L37.33 256.45 L37.65 255.46 L37.98 254.46 L38.31 253.47 L38.64 252.47 L38.97 251.47 L39.30 250.48 L39.63 249.48 L39.97 248.49 L40.30 247.49 L40.64 246.50 L40.98 245.50 L41.32 244.50 L41.66 243.51 L42.01 242.51 L42.35 241.52 L42.70 240.52 L43.05 239.53 L43.39 238.53 L43.75 237.53 L44.10 236.54 L44.45 235.54 L44.81 234.55 L45.17 233.55 L45.52 232.56 L45.88 231.56 L46.25 230.57 L46.61 229.57 L46.98 228.57 L47.34 227.58 L47.71 226.58 L48.08 225.59 L48.45 224.59 L48.83 223.60 L49.20 222.60 L49.58 221.61 L49.96 220.61 L50.34 219.62 L50.72 218.62 L51.11 217.63 L51.49 216.63 L51.88 215.64 L52.27 214.64 L52.66 213.65 L53.06 212.65 L53.45 211.66 L53.85 210.66 L54.25 209.66 L54.65 208.67 L55.06 207.68 L55.46 206.68 L55.87 205.69 L56.28 204.69 L56.69 203.70 L57.11 202.70 L57.53 201.71 L57.94 200.71 L58.37 199.72 L58.79 198.72 L59.21 197.73 L59.64 196.73 L60.07 195.74 L60.50 194.74 L60.94 193.75 L61.37 192.75 L61.81 191.76 L62.26 190.76 L62.70 189.77 L63.15 188.78 L63.60 187.78 L64.05 186.79 L64.50 185.79 L64.96 184.80 L65.42 183.80 L65.88 182.81 L66.35 181.82 L66.81 180.82 L67.28 179.83 L67.76 178.83 L68.23 177.84 L68.71 176.85 L69.19 175.85 L69.68 174.86 L70.16 173.86 L70.65 172.87 L71.15 171.88 L71.64 170.88 L72.14 169.89 L72.65 168.89 L73.15 167.90 L73.66 166.91 L74.17 165.91 L74.69 164.92 L75.21 163.93 L75.73 162.93 L76.25 161.94 L76.78 160.95 L77.32 159.95 L77.85 158.96 L78.39 157.97 L78.93 156.97 L79.48 155.98 L80.03 154.99 L80.59 153.99 L81.15 153.00 L81.71 152.01 L82.27 151.01 L82.84 150.02 L83.42 149.03 L84.00 148.04 L84.58 147.04 L85.17 146.05 L85.76 145.06 L86.35 144.06 L86.95 143.07 L87.56 142.08 L88.17 141.09 L88.78 140.09 L89.40 139.10 L90.02 138.11 L90.65 137.12 L91.29 136.13 L91.92 135.13 L92.57 134.14 L93.22 133.15 L93.87 132.16 L94.53 131.17 L95.19 130.17 L95.86 129.18 L96.54 128.19 L97.22 127.20 L97.91 126.21 L98.60 125.22 L99.30 124.23 L100.01 123.23 L100.72 122.24 L101.44 121.25 L102.16 120.26 L102.89 119.27 L103.63 118.28 L104.37 117.29 L105.12 116.30 L105.88 115.31 L106.65 114.32 L107.42 113.33 L108.20 112.34 L108.99 111.35 L109.79 110.36 L110.59 109.37 L111.40 108.38 L112.22 107.39 L113.05 106.40 L113.89 105.41 L114.73 104.42 L115.59 103.43 L116.45 102.44 L117.33 101.45 L118.21 100.46 L119.10 99.47 L120.00 98.48 L120.92 97.49 L121.84 96.51 L122.78 95.52 L123.72 94.53 L124.68 93.54 L125.64 92.55 L126.62 91.56 L127.62 90.58 L128.62 89.59 L129.64 88.60 L130.66 87.61 L131.71 86.63 L132.76 85.64 L133.83 84.65 L134.92 83.67 L136.02 82.68 L137.13 81.69 L138.26 80.71 L139.41 79.72 L140.57 78.74 L141.75 77.75 L142.95 76.77 L144.16 75.78 L145.39 74.80 L146.65 73.81 L147.92 72.83 L149.21 71.84 L150.52 70.86 L151.86 69.88 L153.22 68.89 L154.60 67.91 L156.00 66.93 L157.43 65.94 L158.88 64.96 L160.36 63.98 L161.87 63.00 L163.41 62.02 L164.97 61.04 L166.57 60.06 L168.20 59.08 L169.86 58.10 L171.56 57.12 L173.29 56.14 L175.06 55.16 L176.87 54.18 L178.72 53.21 L180.62 52.23 L182.56 51.25 L184.54 50.28 L186.54 49.32 L188.54 48.38 L190.54 47.47 L192.54 46.58 L194.54 45.72 L196.54 44.87 L198.54 44.05 L200.54 43.24 L202.54 42.46 L204.54 41.69 L206.54 40.95 L208.54 40.22 L210.54 39.51 L212.54 38.82 L214.54 38.14 L216.54 37.48 L218.54 36.84 L220.54 36.22 L222.54 35.61 L224.54 35.01 L226.54 34.43 L228.54 33.86 L230.54 33.31 L232.54 32.77 L234.54 32.25 L236.54 31.73 L238.54 31.23 L240.54 30.75 L242.54 30.27 L244.54 29.81 L246.54 29.36 L248.54 28.92 L250.54 28.49 L252.54 28.07 L254.54 27.66 L256.54 27.26 L258.54 26.87 L260.54 26.49 L262.54 26.12 L264.54 25.76 L266.54 25.41 L268.54 25.06 L270.54 24.73 L272.54 24.40 L274.54 24.09 L276.54 23.77 L278.54 23.47 L280.54 23.18 L282.54 22.89 L284.54 22.61 L286.54 22.33 L288.54 22.07 L290.54 21.81 L292.54 21.55 L294.54 21.30 L296.54 21.06 L298.54 20.83 L300.54 20.60 L302.54 20.37 L304.54 20.15 L306.54 19.94 L308.54 19.73 L310.54 19.53 L312.54 19.33 L314.54 19.14 L316.54 18.95 L318.54 18.77 L320.54 18.59 L322.54 18.42 L324.54 18.25 L326.54 18.08 L328.54 17.92 L330.54 17.76 L332.54 17.61 L334.54 17.46 L336.54 17.31 L338.54 17.17 L340.54 17.03 L342.54 16.89 L344.54 16.76 L346.54 16.63 L348.54 16.50 L350.54 16.38 L352.54 16.26 L354.54 16.14 L356.54 16.03 L358.54 15.92 L360.54 15.81 L362.54 15.71 L364.54 15.60 L366.54 15.50 L368.54 15.40 L370.54 15.31 L372.54 15.21 L374.54 15.12 L376.54 15.03 L378.54 14.95 L380.54 14.86 L382.54 14.78 L384.54 14.70 L386.54 14.62 L388.54 14.55 L390.54 14.47 L392.54 14.40 L394.54 14.33 L396.54 14.26 L398.54 14.19 L400.54 14.13 L402.54 14.06 L404.54 14.00 L406.54 13.94 L408.54 13.88 L410.54 13.82 L412.54 13.77 L414.54 13.71 L416.54 13.66 L418.54 13.60 L420.54 13.55 L422.54 13.50 L424.54 13.45 L426.54 13.41 L428.54 13.36 L430.54 13.32 L432.54 13.27 L434.54 13.23 L436.54 13.19 L438.54 13.15 L440.54 13.11 L442.54 13.07 L444.54 13.03 L446.54 12.99 L448.54 12.96 L450.54 12.92 L452.54 12.89 L454.54 12.85 L456.54 12.82 L458.54 12.79 L460.54 12.76 L462.54 12.73 L464.54 12.70 L466.54 12.67 L468.54 12.64 L470.54 12.62 L472.54 12.59 L474.54 12.56 L476.54 12.54 L478.54 12.51 L480.54 12.49 L482.54 12.47 L484.54 12.44 L486.54 12.42 L488.54 12.40 L490.54 12.38 L492.54 12.36 L494.54 12.34 L496.54 12.32 L498.54 12.30 L500.54 12.28 L502.54 12.26 L504.54 12.24 L506.54 12.22 L508.54 12.21 L510.54 12.19 L512.54 12.17 L514.54 12.16 L516.54 12.14 L518.54 12.13 L520.54 12.11 L522.54 12.10 L524.54 12.09 L526.54 12.07 L528.54 12.06 L530.54 12.05 L532.54 12.03 L534.54 12.02 L536.54 12.01 L538.54 12.00 L540.54 11.99 L542.54 11.98 L544.54 11.96 L546.54 11.95 L548.54 11.94 L550.54 11.93 L552.54 11.92 L554.54 11.91 L556.54 11.91 L558.54 11.90 L560.54 11.89 L562.54 11.88 L564.54 11.87 L566.54 11.86 L568.54 11.85 L570.54 11.85 L572.54 11.84 L574.54 11.83 L576.54 11.82 L578.54 11.82 L580.54 11.81 L582.54 11.80 L584.54 11.80 L586.54 11.79 L588.54 11.78 L590.54 11.78 L592.54 11.77 L594.54 11.77 L596.54 11.76 L598.54 11.76 L600.54 11.75 L602.54 11.74 L604.54 11.74 L606.54 11.73 L608.54 11.73 L610.54 11.72 L612.54 11.72 L614.54 11.72 L616.54 11.71 L618.54 11.71 L620.54 11.70 L622.54 11.70 L624.54 11.69 L626.54 11.69 L628.54 11.69 L630.54 11.68 L632.54 11.68 L634.54 11.68 L636.54 11.67 L638.54 11.67 L640.54 11.67 L642.54 11.66 L644.54 11.66 L646.54 11.66 L648.54 11.65 " style="fill:none;stroke:#3D8BF2;stroke-width:1;" /></g></svg>